# xmcd CD database file
#
# Track frame offsets:
#	150
#	38719
#	62572
#	107205
#	127789
#	192926
#
# Disc length: 3062 seconds
#
# Revision: 0
# Processed by: cddbd v1.5.2PL0 Copyright (c) Steve Scherf et al.
# Submitted via: CDex 1.70beta2
#
DISCID=480bf406
DTITLE=Stevie Ray Vaughn - Live In Montreaux
DYEAR=1985
DGENRE=Blues
TTITLE0=Ain't Gone 'n' Give Up On Love
TTITLE1=Sweet Little Thing
TTITLE2=Mary Had A Little Lamb
TTITLE3=Cold Shot
TTITLE4=Don't Stop By The Creek, Son
TTITLE5=Tin Pan Alley
EXTD=YEAR: 1985
EXTT0=
EXTT1=
EXTT2=
EXTT3=
EXTT4=
EXTT5=
PLAYORDER=
